<?xml version="1.0" encoding="UTF-8"?><svg xmlns="http://www.w3.org/2000/svg" viewBox="0 0 425.2 425.2"><defs><style>.cls-1{fill:#fff;stroke-width:1.94px;}.cls-1,.cls-2{stroke:#000;}.cls-1,.cls-2,.cls-3{stroke-miterlimit:10;}.cls-4{stroke-linejoin:round;stroke-width:2.12px;}.cls-4,.cls-3{stroke:#1d1d1b;}.cls-4,.cls-3,.cls-5{fill:#1d1d1b;}.cls-2{stroke-width:2.27px;}.cls-3{stroke-width:1.06px;}.cls-5{stroke-width:0px;}</style></defs><g id="Ebene_2"><g id="Ebene_2-2"><rect class="cls-1" x="-1348.86" y="-13.21" width="1800.01" height="485"/></g></g><g id="Ebene_1"><g id="Ebene_1-2"><path class="cls-2" d="m209.97,60.43c-2.72,2.49-4.16,6.5-5.29,9.9-1.36,3.85-2.34,7.93-3.7,11.79-1.66,4.61-4,8.92-6.57,13.07-2.64,4.38-4.53,8.76-6.57,13.45-1.59,3.7-4.68,6.2-6.65,9.6-2.34,4.16-4.16,8.61-6.04,12.92-4.16,9.52-8.08,19.12-12.69,28.41-1.96,4.08,3.78,7.56,6.12,3.63,5.14-8.61,9.6-17.53,13.22-26.9,1.81-4.61,3.32-9.52,5.59-13.98,1.74-3.4,4.84-5.89,6.27-9.44.91-2.12,1.44-4.38,2.12-6.57.83-2.57,1.96-4.91,3.17-7.25,2.19-4.46,4.68-8.76,7.1-13.15,3.85-6.88,5.21-14.73,8.84-21.76,1.74-3.02-2.27-6.2-4.91-3.7h0Z"/><path class="cls-2" d="m163.5,161.67c-5.74-5.67-15.49-.91-22.29.3-9.75,1.74-19.72,2.57-29.54,4-9.75,1.44-19.49,2.95-29.32,4.38-4.68.68-9.37,1.44-14.13,1.44-3.02,0-5.89-.15-8.76.68-2.42.68-5.44,1.74-6.72,4.08-1.89,3.48,1.13,5.97,4.08,7.18,2.57,1.06,4.46-1.74,4-4,.45-.15.91-.3,1.36-.3,3.85-.45,7.78.76,11.71.38,10.65-.98,21.31-3.1,31.88-4.61,10.65-1.59,21.31-2.8,31.96-4.23,4.76-.68,9.29-1.66,13.9-2.87,2.04-.53,4.16-.98,6.2-1.59,2.12-.6,3.63-1.74,5.36-3.1.6-.53.76-1.21.3-1.74h0Z"/><path class="cls-2" d="m123.38,240.17c-2.95-2.49-5.44-5.44-8.01-8.31-3.48-3.78-7.03-7.48-10.58-11.18-7.25-7.4-14.88-14.28-22.67-21-3.93-3.4-7.86-6.88-11.71-10.35-1.89-1.74-3.78-3.55-5.67-5.29-1.89-1.81-3.32-3.93-6.12-4-1.28,0-2.27,1.06-2.34,2.34-.08,2.49,1.51,3.7,3.1,5.44,1.74,1.89,3.55,3.78,5.36,5.59,3.4,3.48,6.8,6.8,10.28,10.12,7.18,6.88,14.43,13.75,21.23,21,6.35,6.72,12.16,14.2,19.04,20.32,2.19,1.96,4.61,3.63,6.8,5.59,1.59,1.44,4.38,3.78,4.23,5.29-.53,5.36,7.93,5.36,8.39,0,.68-6.57-7.03-11.86-11.33-15.56h0Z"/><path class="cls-2" d="m134.19,259.36c-.91-3.85-5.89-2.49-6.35.83-.53,4.08-.53,8.16-1.06,12.24-.53,4.08-1.28,8.16-2.12,12.16-1.74,8.76-2.87,17.68-4.76,26.44-2.04,9.22-4.46,18.36-5.44,27.8-.38,3.55.76,7.1-.3,10.5-1.13,3.78-2.64,7.4-2.72,11.48,0,5.29,8.39,5.29,8.24,0-.08-3.93,1.89-7.48,2.49-11.33.53-3.55-.45-7.1-.15-10.65.83-9.67,3.32-19.19,5.21-28.71,1.66-8.54,3.1-17.08,4.76-25.61,1.66-7.86,4.16-17.15,2.19-25.16h0Z"/><path class="cls-2" d="m216.39,309.91c-6.04-5.59-15.56.83-21.08,4.08-9.22,5.44-19.19,9.75-28.71,14.66-10.35,5.29-20.55,10.96-30.9,16.24-4.99,2.49-9.52,5.52-14.36,8.24-3.55,1.96-8.99,3.4-9.29,8.16-.15,1.96,1.89,2.95,3.55,2.64,1.96-.38,3.55-1.81,5.29-2.64,1.81-.83,3.63-1.51,5.29-2.64,4.23-2.87,8.08-6.04,12.69-8.46,9.29-4.84,18.89-9.22,28.18-13.98,9.52-4.91,19.27-9.44,28.79-14.36,2.8-1.44,5.44-3.17,8.24-4.61,2.19-1.13,5.67-3.1,8.24-1.96,3.25,1.51,7.18-2.49,4.08-5.36h0Z"/><path class="cls-2" d="m311.67,358.19c-4.76-2.49-9.29-5.36-14.13-7.71-2.57-1.28-5.14-2.42-7.86-3.32-2.19-.76-4.68-1.13-6.5-2.57-1.51-1.21-2.72-2.72-4.53-3.55-1.21-.53-2.34-.76-3.7-.68-1.36,0-1.89-.15-3.1-.76-4.38-2.27-8.24-5.44-12.16-8.46-3.93-3.02-8.01-5.06-12.69-6.65-3.78-1.28-7.63-2.34-10.88-4.61-4.91-3.4-9.37-7.63-14.96-10.05-1.36-.6-3.17.38-3.85,1.59-.15.23-.23.53-.3.76h0c-.38,1.44.3,3.1,1.59,3.78,5.14,2.87,9.22,7.48,14.05,10.8,3.17,2.19,6.88,3.4,10.5,4.61,4.99,1.74,8.92,3.78,13.07,7.03,3.93,3.17,7.93,6.5,12.54,8.69.91.45,1.89.98,2.87,1.21,1.21.38,2.42-.08,3.55.23,1.44.3,2.8,2.27,4.08,3.1,4.23,2.87,9.75,3.63,14.36,5.97,4.84,2.42,9.37,5.29,14.2,7.63,4.38,2.27,8.54-4.61,3.85-7.03h0Z"/><path class="cls-2" d="m314.39,357.44c-1.96-2.57-2.49-6.65-3.1-9.75-.68-3.63-1.13-7.25-1.96-10.8-2.57-10.28-4.53-20.63-6.42-31.05-.98-5.21-2.19-10.35-2.64-15.56-.45-5.06-.6-10.12-1.66-15.11-.68-3.55-1.89-6.95-2.72-10.43-.91-3.7-1.21-7.03-1.36-10.8-.15-2.72-3.25-3.25-4.76-1.28-2.27,2.95-1.36,7.93-.68,11.33.76,3.93,2.12,7.71,3.02,11.64,1.21,5.14,1.28,10.5,1.74,15.72.45,5.52,1.28,10.96,2.19,16.4,1.81,10.88,4.38,21.53,6.8,32.26,1.66,7.56,1.66,16.09,6.65,22.44,2.72,3.63,7.71-1.44,4.91-4.99h0Z"/><path class="cls-2" d="m369.47,173.91c-2.87-1.13-5.14,2.49-4.16,4.91-4,6.12-10.58,10.5-15.87,15.34-7.03,6.42-13.75,13.15-20.4,20.02-6.65,6.88-13.22,13.75-20.02,20.48-3.32,3.32-6.72,6.5-10.12,9.67-3.4,3.17-7.48,6.27-9.9,10.2-.6.91.38,2.27,1.44,1.89,4.53-1.66,8.46-5.36,12.09-8.46,4.08-3.48,8.08-7.18,12.01-10.88,7.93-7.4,15.56-14.96,23.42-22.44,7.56-7.18,15.04-14.43,23.04-21.08,4.23-3.4,18.66-15.56,8.46-19.64h0Z"/><path class="cls-2" d="m261.57,157.21c-9.52-17.68-17.98-35.89-27.58-53.57-4.53-8.39-9.52-16.55-12.39-25.69-1.06-3.4-1.81-6.8-3.25-10.05-1.13-2.57-2.87-6.65-6.27-6.42-1.13.08-2.04.83-2.04,2.04,0,1.66.83,2.64,1.59,4,.83,1.59,1.36,3.25,1.81,4.99.91,3.1,1.66,6.27,2.87,9.29,3.63,9.07,7.25,17.91,11.71,26.6,4.61,8.84,8.99,17.83,13.07,26.9,3.93,8.92,7.18,18.28,12.16,26.67,3.25,5.36,11.26.68,8.31-4.76h0Z"/><path class="cls-2" d="m365.31,172.4c-9.52-.15-18.81-3.78-28.18-5.14-9.52-1.36-19.04-1.81-28.64-2.95-9.44-1.13-19.19-2.57-28.41-4.91-4.31-1.13-8.24-3.63-12.69-4.16-3.4-.45-9.44.23-11.26,3.63-.38.76-.53,1.81,0,2.57,2.87,3.78,6.8,1.13,10.65,1.96,4.53.98,8.69,3.32,13.3,4.38,9.29,2.12,18.96,3.55,28.41,4.61,9.52,1.06,19.12,1.59,28.64,3.17,9.44,1.59,18.51,5.06,28.18,4.91,5.21-.08,5.21-8.01,0-8.08h0Z"/><path class="cls-3" d="m280.39,224.23c0,4.23-3.63,9.97-6.12,13.3-1.74,2.34-3.85,4.46-5.82,6.65-2.04,2.27-4.08,5.14-6.5,7.03-3.85,3.1-7.33,6.57-11.86,8.76-4.91,2.34-10.35,3.63-15.64,4.91-5.21,1.21-10.43,2.27-15.64,3.55-3.32.83-5.97,1.66-9.37.98-2.72-.53-5.36-.08-8.01-.45-2.95-.45-5.82-1.44-8.84-1.74-3.25-.38-6.5-1.13-9.6-2.19-6.12-2.12-11.71-5.67-16.55-9.9-4.99-4.38-10.12-9.14-14.05-14.51h-.08c-.23.08-.38.15-.6.3-1.06.83-2.19,1.66-3.32,2.57-.23.15-.38.3-.6.38,2.64,3.93,5.59,7.56,8.99,11.11,4.84,5.14,9.9,9.97,16.02,13.68,6.35,3.85,13,5.67,20.17,7.03,3.32.6,6.35,2.12,9.82,2.12s6.72.98,10.12.83c6.72-.3,13.75-2.72,20.4-4.16,6.12-1.36,12.32-2.64,18.13-4.91,2.87-1.13,5.67-2.49,8.31-4.23,2.42-1.59,4.16-3.7,6.35-5.44,5.97-4.76,11.64-10.65,16.17-16.85,3.7-4.99,7.86-12.32,7.93-18.74,0-6.35-9.75-6.35-9.82-.08h0Z"/><path class="cls-3" d="m195.92,266.47c-2.34-1.44-6.04-1.28-8.69-1.81-3.1-.68-5.67-1.81-8.46-3.32-5.06-2.64-9.97-5.67-14.51-9.22-2.49-1.89-5.59-3.78-7.56-6.27-1.28-1.66-2.27-3.4-3.55-4.99-.3-.08-.6-.15-.83-.3-.23.08-.38.15-.6.3-1.06.83-2.19,1.66-3.32,2.57-.3.23-.68.38-.98.53-.08.23-.08.45-.08.76.38.91.53,1.81.23,2.72,1.06,1.51,1.89,3.17,3.1,4.61,3.55,4.08,8.76,7.71,13.45,10.5,2.27,1.36,4.08,3.17,6.35,4.38,3.02,1.59,6.04,3.32,9.22,4.68,2.57,1.06,5.29,1.66,8.08,2.19,1.59.3,3.02.38,4.61.45s2.8.68,4.38-.15c3.85-2.12,2.12-5.82-.83-7.63h0Z"/><path class="cls-4" d="m260.44,205.8c-1.13-2.04-2.87-4.08-4.99-5.29-.38-.3-.76-.6-1.21-.76-.83-.3-1.74-.3-2.64,0-.3.08-.68.23-.98.38-.45.23-.45.15-.3.15-.23.08-.53.23-.76.3-1.13.53-2.19,1.28-3.02,2.19-3.1,3.32-4.76,8.01-4.23,12.54.3,2.57,1.13,4.91,2.8,6.95,1.59,1.96,4.31,3.25,6.88,2.95,5.59-.53,9.67-5.59,10.28-10.96.38-2.95-.38-5.89-1.81-8.46h0Zm-7.86,11.71h0c-.3.15-.53.3-.76.45-.15.08-.23.08-.38.08h-.3c-.15,0-.3-.08-.38-.08-.08-.08-.23-.15-.3-.23s-.23-.23-.3-.3h0l-.08-.15v-.08c-.08-.08-.08-.15-.15-.15,0,0,.08,0,.08.08-.15-.3-.38-.6-.53-.91v-.08c-.08-.15-.08-.3-.08-.3-.08-.3-.23-.68-.3-.98-.08-.38-.15-.68-.23-1.06v-1.28c.38.76.76,1.51,1.44,2.19.83.83,1.89,1.51,3.02,1.96-.08.08-.15.15-.23.23-.23.38-.38.45-.53.6h0Z"/><path class="cls-4" d="m251.15,218.11s.08,0,0,0h.3c0-.08-.08-.08-.3,0h0Z"/><path class="cls-4" d="m250.32,200.28c.08,0,.15-.08.23-.08-.08,0-.15,0-.23.08Z"/><path class="cls-4" d="m249.94,217.28s0,.08.08.08c.08.08.08.15.15.15,0,0-.08-.15-.23-.23h0Z"/><path class="cls-4" d="m180.58,207.46c-1.66-2.8-5.29-3.17-7.25-.6-.08-.3-.15-.6-.3-.83-.15-.3-.38-.53-.53-.76v-.08c.08-.15.08-.3.23-.45v-.08c.15-.38.38-.76.6-1.21.08-.08.15-.23.15-.3h.3c.15.15.3.23.38.38.45.91,1.96.53,1.96-.53,0-.3-.08-.6-.15-.91-.08-.15-.15-.3-.15-.53h0v-.15c-.08-.91-.45-1.89-1.13-2.57-1.44-1.44-3.7-1.36-4.91.15-.83.98-1.44,2.12-1.96,3.32-.45.98-1.06,2.04-1.21,3.1-.15,1.13.08,2.64,1.28,3.17,0,0,.08.08.23.08,0,.08.08.23.08.3v.83c0,.38-.08.76-.08,1.13-.68,1.59-.83,3.48-.38,5.06.23.76.6,1.36.98,1.96.23.45.53.91.83,1.28,1.21,1.44,3.1,1.96,4.91,1.51.53-.15,1.06-.38,1.51-.68.15-.08.3-.08.45-.15,2.95-1.59,4.68-5.21,4.84-8.39v-.38c.23-1.13.08-2.49-.68-3.7h0Z"/><path class="cls-4" d="m181.64,211.61c.3-3.1-.98-6.35-2.64-8.92-.76-1.21-1.74-2.42-3.1-3.1-1.81-.83-3.85-.76-5.52.38-2.95,1.89-4.46,5.29-4.53,8.76-.08,3.32,1.44,6.27,3.32,8.92,1.06,1.44-.38,3.25,1.21,4.16,1.28.68,2.87.68,4.16-.08.45-.3,3.63-.68,3.93-1.06.38-.45.6-.76.83-1.21.23-.38.3-.76.3-1.21-.08.45-.08.53-.08.3,0-.08.08-.23.08-.3.3-.3.76-.91.76-1.06.3-.6.38-1.21.23-1.81.6-1.21.91-2.49,1.06-3.78h0Zm-8.16-.38c-.08-.3-.23-.68-.3-.98-.08-.23-.15-.45-.15-.76v-1.21c0,.68.08-.38.08-.53.08-.3.15-.53.23-.83.08-.15.08-.3.15-.38v-.08c.08-.08.08-.15.08-.15.23.45.53.91.76,1.36.15.3.3.6.38.91v.15c.08.23.15.53.23.76s.08.53.15.76v1.28c-.08.23-.15.53-.23.76,0,.08-.23.53-.23.45-.08.15-.15.3-.23.45,0,.08-.08.08-.08.15h-.08v-.08h0c-.23-.6-.53-1.21-.76-1.81.38.76,0-.08,0-.23h0Z"/><path class="cls-4" d="m258.93,215.09c-.23-.68-.6-1.13-1.21-1.59-.23-.15-.53-.3-.76-.38-.45-.98-1.21-1.81-2.04-2.34-.38-.3-1.06-.45-1.51-.45-.23,0-.38.08-.6.08v-.53q.08,0,.15-.08c.76-.23,1.44-.98,1.36-1.81,0-.83-.53-1.51-1.36-1.81-.53-.15-.98-.38-1.51-.53-1.21-.23-2.34.08-3.17.91-.76.76-1.21,1.74-1.36,2.8-.08.6-.23,1.21-.15,1.81.08.68.15,1.36.23,1.96.08.68.3,1.28.45,1.96.3.83.6,1.59,1.06,2.27.76,1.06,1.74,1.96,3.02,2.19,1.59.3,3.32-.08,4.46-1.21,1.06-.08,2.04-.53,2.72-1.59.3-.23.45-1.13.23-1.66h0Z"/><path class="cls-5" d="m306.76,92.08c-1.89-.68-4.46.76-4.84,2.72-.15.6-.23,1.28-.3,1.89,0,.3-.23,1.13-.08.45-.08.3-.15.6-.23.91-.3,1.51-.53,2.95-.68,4.46-.38,2.87-.6,5.74-.6,8.61-.08,5.06-.23,10.88,1.74,15.64.91,2.19,2.95,3.55,5.29,2.57,2.27-.91,2.8-3.32,1.96-5.44h0c-.08-.23-.15-.45-.23-.6-.15-.45-.3-.91-.38-1.44-.15-.53-.23-1.06-.3-1.59-.08-.3-.08-.68-.15-.98v-.38c1.21,0,2.42-.53,2.87-1.66,3.48-7.86,6.57-21.31-4.08-25.16h0Z"/><path class="cls-5" d="m329.2,101.15c-4.08-2.64-9.6,0-13.3,2.04-2.42,1.36-4.61,2.95-6.8,4.61-1.13.91-2.8,1.96-3.1,3.48,0,.08-.23,1.74-.08.68v-.3c0,.08,0,.15-.08.23-.08.15-.08.3-.15.45-.08.3-.15.6-.23.91-.38,2.42,1.81,4.38,4.16,3.17h0c.08,0,.23-.08.3-.08.08-.08.15-.08.15-.08.98-.15,1.74-.6,2.64-1.28.3-.3.68-.53.98-.83.15-.15.3-.23.45-.38.38-.3.83-.6,1.21-.91.83-.6,1.74-1.13,2.57-1.66.3-.15.68-.38.98-.53-.08.08-.15.15-.23.15-.23.23-.53.38-.76.6-1.89,1.44-3.78,2.8-5.59,4.23-2.12,1.59-4.31,3.17-6.35,4.84-1.21.98-2.57,1.89-3.55,3.1-1.44,1.74-1.81,4.46,0,6.12,1.66,1.51,4.53,1.81,6.12,0,.38-.45.83-.91,1.36-1.28.3-.23.6-.53.91-.76.08-.08.23-.15.38-.3,0,0,.08-.08.15-.08,1.81-1.36,3.7-2.72,5.52-4.08,4.08-2.95,8.24-5.89,11.71-9.6,1.44-1.44,2.95-3.17,3.48-5.21.6-2.64-.45-5.74-2.87-7.25h0Z"/><path class="cls-5" d="m306.23,99.64c.08-.08.15-.15.3-.3-.08.08-.23.23-.3.3h0Z"/><path class="cls-5" d="m306.46,99.34h0c.08,0,.08-.08.15-.08h0s-.08,0-.15.08Z"/><path class="cls-5" d="m308.87,93.22c-14.2-2.04-9.37,18.74-8.01,26.37.08.68.23,1.36.3,1.96.08.3.08.6.15.91v.23c.08.98.23,1.96.08,2.95-.15,1.74,1.59,3.17,3.17,3.17,1.89,0,3.02-1.44,3.17-3.17.23-2.49-.38-5.06-.83-7.48-.3-1.51-.53-3.1-.83-4.61-.15-.83-.3-1.59-.38-2.42-.08-.38-.15-.83-.15-1.21v-.08c0-.23-.08-.38-.08-.6-.15-1.59-.3-3.1-.3-4.68,0-.68.08-1.44.08-2.12v-.15c0-.08,0-.15.08-.23.08-.3.15-.6.23-.91.08-.3.15-.53.3-.83v-.08c0-.08.08-.08.08-.15.08-.15.3-.45.3-.45h0q-.08.08-.23.23c.08-.08.15-.15.23-.23,0,0,.15-.23.3-.3h0q.08-.08.15-.08s.08,0,.08-.08h0s-.08,0-.08.08h.08s.08,0,.08-.08c.23.23.45.38.76.6.53.3,1.44.23,1.89-.23.98-1.13,1.66-2.12,1.59-3.63-.15-1.13-.98-2.64-2.19-2.72h0Z"/><path class="cls-5" d="m307.97,120.8c-.3-.53-.15-.3-.38-.91-.15-.45-.3-.98-.45-1.44-.53-1.96-.68-3.85-.76-5.89-.15-4.16-.15-8.39-.91-12.47-.15-.91-1.59-.91-1.81,0-.83,4.31-1.89,8.69-2.04,13.15-.08,2.34,0,4.68.38,6.95.38,2.42,1.21,5.67,4.23,5.74.76,0,1.66-.45,1.96-1.13.76-1.59.45-2.57-.23-4h0Z"/></g></g></svg>